<svg width="15" height="15" viewBox="0 0 15 15" fill="none" xmlns="http://www.w3.org/2000/svg">
<path d="M3.2579 3.11677C3.6779 3.45777 3.8349 3.43177 4.6239 3.37877L12.0569 2.93277C12.2149 2.93277 12.0839 2.77577 12.0309 2.74977L10.7959 1.85677C10.5599 1.67277 10.2449 1.46277 9.6409 1.51577L2.4429 2.04077C2.1809 2.06677 2.1279 2.19777 2.2329 2.30277L3.2579 3.11677ZM3.7039 4.84877V12.6698C3.7039 13.0898 3.9139 13.2478 4.3869 13.2218L12.5569 12.7488C13.0289 12.7228 13.0819 12.4338 13.0819 12.0928V4.32377C13.0819 3.98377 12.9509 3.79877 12.6619 3.82477L4.1239 4.32377C3.8089 4.34977 3.7039 4.50777 3.7039 4.84877ZM11.7689 5.26877C11.8209 5.50477 11.7689 5.74077 11.5319 5.76777L11.1379 5.84577V11.6208C10.7969 11.8038 10.4809 11.9088 10.2179 11.9088C9.7979 11.9088 9.6929 11.7778 9.3779 11.3838L6.8029 7.34177V11.2528L7.6179 11.4368C7.6179 11.4368 7.6179 11.9088 6.9609 11.9088L5.1489 12.0138C5.0959 11.9088 5.1489 11.6468 5.3329 11.5938L5.8049 11.4638V6.29177L5.1499 6.23977C5.0969 6.00377 5.2279 5.66277 5.5959 5.63577L7.5399 5.50577L10.2199 9.59977V5.97777L9.5369 5.89877C9.4839 5.60977 9.6939 5.39977 9.9569 5.37377L11.7699 5.26877M1.8399 1.33177L9.3259 0.780771C10.2449 0.700771 10.4819 0.75477 11.0589 1.17477L13.4489 2.85477C13.8439 3.14277 13.9749 3.22177 13.9749 3.53677V12.7488C13.9749 13.3268 13.7649 13.6688 13.0289 13.7198L4.3349 14.2448C3.7829 14.2718 3.5199 14.1928 3.2309 13.8248L1.4709 11.5418C1.1559 11.1218 1.0249 10.8068 1.0249 10.4388V2.24977C1.0249 1.77777 1.2349 1.38377 1.8389 1.33177H1.8399Z" fill="black"/>
</svg>
